<svg width="200" height="200" viewBox="0 0 200 200" fill="none" xmlns="http://www.w3.org/2000/svg">
<g clip-path="url(#clip0_3769_7935)">
<path d="M199.758 99.993C199.758 155.223 154.994 199.986 99.7648 199.986C44.5352 199.986 -0.242188 155.223 -0.242188 99.993C-0.242188 44.7634 44.5212 0 99.7508 0C154.98 0 199.744 44.7634 199.744 99.993H199.758Z" fill="#F5F5F5"/>
<path d="M136.784 78.6428C136.784 99.1013 120.2 115.672 99.7553 115.672C79.3108 115.672 62.7266 99.0874 62.7266 78.6428C62.7266 58.1982 79.3108 41.614 99.7553 41.614C120.2 41.614 136.784 58.1982 136.784 78.6428Z" fill="#DDDDDD"/>
<path d="M99.7568 123.336C70.4488 123.336 45.8651 143.502 39.0781 170.72C55.3975 184.74 76.5947 193.241 99.7568 193.241C122.919 193.241 144.116 184.74 160.436 170.72C153.649 143.502 129.079 123.336 99.7568 123.336Z" fill="#DDDDDD"/>
<path d="M37.6484 178.371L37.6619 178.384L37.6484 178.371Z" fill="#E0E0E0"/>
</g>
<defs>
<clipPath id="clip0_3769_7935">
<rect width="200" height="200" rx="100" fill="white"/>
</clipPath>
</defs>
</svg>
