<svg width="164" height="51" viewBox="0 0 164 51" fill="none" xmlns="http://www.w3.org/2000/svg">
<g clip-path="url(#clip0_5127_59969)">
<path d="M55.697 47.2118C55.697 47.0777 55.6194 46.9713 55.5372 46.8742C53.9072 45.0101 52.2818 43.0258 50.6062 41.2219C50.2501 40.838 49.4465 39.9268 49.0722 39.6678C48.9808 39.603 48.958 39.5151 48.7982 39.5614C48.5608 39.9823 48.1042 40.5188 47.7572 40.8935C44.4151 44.4736 40.096 47.6281 35.4938 49.3164C22.6185 54.0436 7.73886 48.3959 0 37.3365C4.93552 30.5603 12.6835 25.5278 20.9566 24.1864C29.8871 22.7387 37.7629 25.2133 45.1731 30.0931C45.5794 30.3614 47.1774 31.3651 47.3828 31.6334C47.4239 31.6889 47.497 31.7213 47.4422 31.8092C46.6204 33.1598 45.6798 34.4456 44.5247 35.5234L44.2325 35.491C40.3425 32.6972 36.1147 30.2966 31.3846 29.3114C22.2213 27.4011 12.9255 30.699 6.46503 37.3458L6.4559 37.4661C11.5786 44.3024 20.2078 48.0398 28.6863 47.0869C33.1287 46.5874 38.1693 44.4505 41.8218 41.8741C47.5426 37.8361 51.4555 30.9211 53.6105 24.3206C53.6059 24.1078 52.7065 23.6453 52.4599 23.3909C49.8209 20.685 50.7432 15.3842 52.2453 12.3037C54.0351 13.881 55.9481 15.9994 56.6832 18.3399C57.4183 20.6804 56.8749 23.1688 56.3179 25.4029C55.455 28.8766 53.8935 32.2254 52.0125 35.2412L51.9851 35.4956L59.4043 43.8491L55.697 47.2072V47.2118Z" fill="white"/>
<path d="M136.405 28.2617V35.1305H137.939V28.2617H141.226V49.8162C141.226 50.1585 140.509 50.9818 140.185 50.9818H137.939V37.3507H136.405V49.7052C136.405 50.0845 135.738 50.9818 135.364 50.9818H133.118V43.891C132.46 44.1547 131.689 44.386 130.981 44.4415C129.588 44.5571 125.835 44.6357 124.548 44.4183C123.552 44.2518 122.388 42.8503 122.388 41.842V29.4875H131.04V31.814H125.675V41.3979C125.675 41.8374 126.315 42.1843 126.712 42.2305C127.625 42.3415 129.483 42.2953 130.438 42.2305C131.392 42.1658 132.236 41.9021 133.122 41.6755V28.2663H136.409L136.405 28.2617Z" fill="white"/>
<path d="M104.075 28.9554C114.051 27.9285 114.663 45.5237 103.929 44.6633C96.1493 44.0389 95.7383 29.8157 104.075 28.9554ZM104.18 31.2774C100.268 31.9527 100.24 42.9103 105.139 42.4431C109.645 42.013 109.577 30.343 104.18 31.2774Z" fill="white"/>
<path d="M159.183 28.2617V33.1369H160.717V28.2617H164.005V40.2878C164.005 40.6301 163.288 41.4534 162.964 41.4534H160.717V35.4681H159.183V40.1768C159.183 40.5561 158.517 41.4534 158.142 41.4534H155.896V28.2663H159.183V28.2617Z" fill="white"/>
<path d="M116.909 28.2615V35.1302H120.197V37.3458H116.909V50.0334C116.909 50.186 116.133 50.9769 115.978 50.9769H113.622V28.2568H116.909V28.2615Z" fill="white"/>
<path d="M151.189 28.0396V30.2551H154.476V32.5817H151.189C151.335 34.4411 151.741 36.5272 153.216 37.79C153.704 38.2062 154.275 38.4005 154.8 38.7335V41.0046C152.608 40.7179 150.586 39.6771 149.49 37.6836C148.312 39.6031 146.39 40.7225 144.18 41.0046V38.567C146.705 37.9333 147.746 34.9731 147.687 32.5817H144.509V30.2551H147.687V28.0396H151.193H151.189Z" fill="white"/>
<path d="M87.6707 29.4778C87.9721 34.8571 86.333 40.6482 81.3929 43.3494C79.9456 44.1404 78.3384 44.6076 76.7222 44.8805V42.4429C79.8816 41.4808 82.4613 38.9969 83.4794 35.8146C83.904 34.4871 84.0456 33.1827 84.1688 31.7997H76.9413V29.4731H87.6753L87.6707 29.4778Z" fill="white"/>
<path d="M94.3503 28.2617V50.0382C94.3503 50.2695 93.6152 50.9818 93.4189 50.9818H91.063V28.2617H94.3503Z" fill="white"/>
<path d="M164 42.4478V49.8161C164 50.1583 163.283 50.9817 162.959 50.9817H160.603V44.6633H149.107V42.4478H164Z" fill="white"/>
<path d="M67.7413 18.178C66.9834 21.2031 64.7873 25.2966 61.6324 26.2355C58.4775 27.1745 56.5189 25.1439 58.2356 22.1328C59.9523 19.1216 64.4906 18.1456 67.7413 18.178Z" fill="white"/>
<path d="M65.4402 0C65.5452 0.661437 65.7598 1.29512 65.8602 1.95656C66.1935 4.11201 66.2072 6.52186 65.0886 8.45529C62.9519 12.1603 59.3358 10.5321 60.2079 6.29059C60.7238 3.79285 63.2441 1.12861 65.4356 0L65.4402 0Z" fill="white"/>
<path d="M69.0564 9.75538C68.5953 12.6046 66.8192 16.3836 63.9382 17.3781C61.5686 18.1968 59.7561 16.9387 60.619 14.3484C61.6508 11.254 66.1161 9.75076 69.0564 9.75538Z" fill="white"/>
<path d="M56.1854 4.99072C58.3769 7.06292 60.2899 9.93068 59.9475 13.1222C59.742 15.0464 58.0801 16.7948 56.2356 15.3563C53.3546 13.1084 54.5417 7.6966 56.1854 4.99535V4.99072Z" fill="white"/>
<path d="M122.279 10.7495C122.228 12.5257 122.429 14.325 122.059 16.0688H123.703V17.1789H119.379L119.215 17.3454V21.8875C119.215 22.4935 117.868 22.4056 117.462 22.3871V17.3454L117.297 17.1789H112.974V16.0688H120.037C120.274 15.8144 120.53 14.9957 120.53 14.6858V12.0261L120.366 11.8596H114.289V10.7495H122.283H122.279Z" fill="white"/>
<path d="M81.5392 10.1943C81.6259 10.2822 81.3748 11.2536 81.7035 11.4154H84.0594V12.5256H82.8541C82.9363 12.8956 83.2604 13.0621 83.4613 13.409C84.3745 15.0187 83.6896 17.1834 82.0186 17.9419C79.3841 19.1399 76.5123 16.5821 77.6127 13.816L78.366 12.5256H77.1606V11.4154H79.6809V10.1943H81.5437H81.5392ZM80.416 12.9881C78.4299 13.3674 79.0645 17.7847 81.0872 16.892C82.7125 16.175 82.1373 12.6597 80.416 12.9881Z" fill="white"/>
<path d="M86.5751 10.3057V21.8877C86.5751 22.4937 85.2282 22.4058 84.8219 22.3873V19.8387C84.5936 19.7462 84.2192 20.0607 84.1096 20.0607H76.7178V18.8396H84.1096C84.1827 18.8396 84.8219 18.5251 84.8219 18.451V10.3057H86.5751Z" fill="white"/>
<path d="M105.961 10.1943V11.5265H108.152V12.7476H105.961C105.915 14.3711 106.869 16.0131 108.463 16.4202C108.499 16.4803 108.499 17.4193 108.476 17.5719C108.454 17.7384 108.54 17.7477 108.312 17.7384C107.125 17.6783 105.769 16.6237 105.029 15.7449C104.093 16.8133 102.925 17.632 101.473 17.7384L101.486 16.4202C103.212 16.0779 104.043 14.4081 104.102 12.7522H101.911V11.5311H104.102V10.199H105.965L105.961 10.1943Z" fill="white"/>
<path d="M95.2269 10.5273V16.0131C95.2269 16.0362 94.9529 16.3184 94.8981 16.3415C94.6744 16.4479 90.9077 16.4618 90.474 16.3924C89.958 16.3138 89.3188 15.6107 89.3188 15.125V10.5273H95.2314H95.2269ZM93.4736 11.7485H91.0629V14.7966C91.0629 14.9678 91.5104 15.2962 91.6656 15.2962H93.3093L93.4736 15.1296V11.7485Z" fill="white"/>
<path d="M94.4323 17.0912C96.7699 16.6934 99.6052 18.2244 98.6464 20.9118C97.5233 24.0525 91.6518 23.4188 91.9394 19.6629C92.0307 18.4742 93.3091 17.2809 94.4323 17.0912ZM95.2998 18.2152C92.8389 18.2799 93.4918 22.5862 95.9938 21.5548C97.6785 20.8609 97.1078 18.1643 95.2998 18.2152Z" fill="white"/>
<path d="M111.435 10.3057V18.7841C111.435 19.242 110.025 19.3808 109.682 19.2836V10.3057H111.435Z" fill="white"/>
<path d="M105.413 18.0625V20.8886C105.413 20.8886 105.669 21.1662 105.687 21.1662H111.435V22.3873H104.701C104.431 22.3873 103.66 21.5223 103.66 21.2217V18.0625H105.413Z" fill="white"/>
<path d="M98.8428 10.3057V12.4102H100.486V13.6313H98.8428V15.9024C98.8428 16.5916 97.4229 16.3835 96.98 16.402V10.3057H98.8428Z" fill="white"/>
</g>
<defs>
<clipPath id="clip0_5127_59969">
<rect width="164" height="51" fill="white"/>
</clipPath>
</defs>
</svg>
