<svg width="139" height="56" viewBox="0 0 139 56" fill="none" xmlns="http://www.w3.org/2000/svg">
<g clip-path="url(#clip0_2775_1969)">
<path d="M49.1935 8.50635C43.6387 8.50635 39.1406 12.9783 39.1406 18.5008C39.1406 24.0234 43.6387 28.4953 49.1935 28.4953C54.7483 28.4953 59.2463 24.0199 59.2463 18.5008C59.2463 12.9818 54.7448 8.50635 49.1935 8.50635ZM49.1935 23.5436C46.3897 23.5436 44.1142 21.2849 44.1142 18.5008C44.1142 15.7168 46.3897 13.4511 49.1935 13.4511C51.9973 13.4511 54.2657 15.7133 54.2657 18.5008C54.2657 21.2884 51.9938 23.5436 49.1935 23.5436Z" fill="white"/>
<path d="M62.3446 30.677H36.043V35.6672H62.3446V30.677Z" fill="white"/>
<path d="M34.2964 24.7762H23.9688V29.7665H34.2964V24.7762Z" fill="white"/>
<path d="M28.9881 22.3109H23.9688V42.0898H28.9881V22.3109Z" fill="white"/>
<path d="M19.8979 37.0995H0V42.0897H19.8979V37.0995Z" fill="white"/>
<path d="M5.01939 22.2794H0V39.9431H5.01939V22.2794Z" fill="white"/>
<path d="M19.8983 23.0112H14.8789V40.6749H19.8983V23.0112Z" fill="white"/>
<path d="M19.8979 22.2794H0V27.2697H19.8979V22.2794Z" fill="white"/>
<path d="M101.32 24.7762H90.9922V29.7665H101.32V24.7762Z" fill="white"/>
<path d="M96.0116 22.3109H90.9922V42.0898H96.0116V22.3109Z" fill="white"/>
<path d="M79.2303 17.3802H74.2109V24.1215H79.2303V17.3802Z" fill="white"/>
<path d="M86.8764 22.2794H66.5664V27.2697H86.8764V22.2794Z" fill="white"/>
<path d="M138.73 24.7762H128.402V29.7665H138.73V24.7762Z" fill="white"/>
<path d="M133.422 22.3109H128.402V42.0898H133.422V22.3109Z" fill="white"/>
<path d="M124.328 37.0995H104.43V42.0897H124.328V37.0995Z" fill="white"/>
<path d="M109.449 22.2794H104.43V39.9431H109.449V22.2794Z" fill="white"/>
<path d="M59.1401 50.5015H39.2422V55.4917H59.1401V50.5015Z" fill="white"/>
<path d="M44.2616 40.1041H39.2422V51.1597H44.2616V40.1041Z" fill="white"/>
<path d="M59.1405 40.1041H54.1211V51.1597H59.1405V40.1041Z" fill="white"/>
<path d="M59.1401 39.3722H39.2422V44.3624H59.1401V39.3722Z" fill="white"/>
<path d="M76.5128 29.7526C71.1306 29.7526 66.7734 34.0844 66.7734 39.4354C66.7734 44.7863 71.1306 49.1182 76.5128 49.1182C81.895 49.1182 86.2522 44.7793 86.2522 39.4354C86.2522 34.0915 81.888 29.7526 76.5128 29.7526ZM76.5128 44.3241C73.7971 44.3241 71.592 42.1354 71.592 39.4354C71.592 36.7354 73.7971 34.5432 76.5128 34.5432C79.2286 34.5432 81.43 36.7354 81.43 39.4354C81.43 42.1354 79.2286 44.3241 76.5128 44.3241Z" fill="white"/>
<path d="M118.312 20.7524L106.941 10.4848V4.62955L111.443 0H115.786L118.572 2.60543L121.566 0H125.909L130.415 4.62955V10.4848L122.989 17.1875L119.044 20.7524H118.312Z" fill="white"/>
</g>
<defs>
<clipPath id="clip0_2775_1969">
<rect width="138.729" height="55.4915" fill="white"/>
</clipPath>
</defs>
</svg>
