<svg width="20" height="21" viewBox="0 0 20 21" fill="none" xmlns="http://www.w3.org/2000/svg">
<path d="M10.0011 3.14062C5.45788 3.14062 1.77539 6.21751 1.77539 10.0119C1.77539 11.5151 2.35357 12.9052 3.3347 14.0362C3.72214 14.4825 3.77698 15.1368 3.44557 15.6281C3.07839 16.1718 2.60988 16.6692 2.01024 17.0608C1.65499 17.2931 1.81831 17.8525 2.24032 17.8586C3.25006 17.8756 4.80102 17.5691 6.2125 16.7202C6.58445 16.4965 7.02554 16.4308 7.44159 16.5451C8.24628 16.7652 9.107 16.8844 9.9999 16.8844C14.5431 16.8844 18.2256 13.8075 18.2256 10.0131C18.2256 6.21872 14.5443 3.14062 10.0011 3.14062Z" fill="#999999"/>
</svg>
