<svg width="23" height="23" viewBox="0 0 23 23" fill="none" xmlns="http://www.w3.org/2000/svg">
<path d="M15.9958 14.9509L19.1652 18.1196L18.1181 19.1667L14.9494 15.9973C13.7704 16.9424 12.3039 17.4565 10.7928 17.4543C7.1165 17.4543 4.13281 14.4706 4.13281 10.7943C4.13281 7.11797 7.1165 4.13428 10.7928 4.13428C14.4692 4.13428 17.4529 7.11797 17.4529 10.7943C17.455 12.3054 16.9409 13.7719 15.9958 14.9509ZM14.5114 14.4018C15.4503 13.4359 15.9747 12.1414 15.9729 10.7943C15.9729 7.93271 13.6544 5.61428 10.7928 5.61428C7.93125 5.61428 5.61282 7.93271 5.61282 10.7943C5.61282 13.6559 7.93125 15.9743 10.7928 15.9743C12.1399 15.9762 13.4344 15.4518 14.4004 14.5128L14.5114 14.4018Z" fill="black"/>
</svg>
