<svg width="20" height="21" viewBox="0 0 20 21" fill="none" xmlns="http://www.w3.org/2000/svg">
<path d="M9.9987 8C9.33566 8 8.69977 8.26339 8.23093 8.73223C7.76209 9.20107 7.4987 9.83696 7.4987 10.5C7.4987 11.163 7.76209 11.7989 8.23093 12.2678C8.69977 12.7366 9.33566 13 9.9987 13C10.6617 13 11.2976 12.7366 11.7665 12.2678C12.2353 11.7989 12.4987 11.163 12.4987 10.5C12.4987 9.83696 12.2353 9.20107 11.7665 8.73223C11.2976 8.26339 10.6617 8 9.9987 8ZM9.9987 14.6667C8.89363 14.6667 7.83382 14.2277 7.05242 13.4463C6.27102 12.6649 5.83203 11.6051 5.83203 10.5C5.83203 9.39493 6.27102 8.33512 7.05242 7.55372C7.83382 6.77232 8.89363 6.33333 9.9987 6.33333C11.1038 6.33333 12.1636 6.77232 12.945 7.55372C13.7264 8.33512 14.1654 9.39493 14.1654 10.5C14.1654 11.6051 13.7264 12.6649 12.945 13.4463C12.1636 14.2277 11.1038 14.6667 9.9987 14.6667ZM9.9987 4.25C5.83203 4.25 2.2737 6.84167 0.832031 10.5C2.2737 14.1583 5.83203 16.75 9.9987 16.75C14.1654 16.75 17.7237 14.1583 19.1654 10.5C17.7237 6.84167 14.1654 4.25 9.9987 4.25Z" fill="#999999"/>
</svg>
