<svg width="24" height="24" viewBox="0 0 24 24" fill="none" xmlns="http://www.w3.org/2000/svg">
<path d="M21.7893 1.48003L22.3793 2.07003C23.1923 2.88403 23.0693 4.32703 22.1023 5.29303L9.9353 17.46L5.9933 18.902C5.4983 19.084 5.0163 18.848 4.9183 18.377C4.88529 18.2062 4.90088 18.0295 4.9633 17.867L6.4333 13.891L18.5663 1.75703C19.5333 0.791025 20.9763 0.666025 21.7893 1.48003ZM9.4043 2.69003C9.53562 2.69003 9.66565 2.71589 9.78698 2.76615C9.90831 2.8164 10.0185 2.89006 10.1114 2.98292C10.2043 3.07578 10.2779 3.18602 10.3282 3.30734C10.3784 3.42867 10.4043 3.5587 10.4043 3.69003C10.4043 3.82135 10.3784 3.95138 10.3282 4.07271C10.2779 4.19403 10.2043 4.30427 10.1114 4.39713C10.0185 4.48999 9.90831 4.56365 9.78698 4.6139C9.66565 4.66416 9.53562 4.69003 9.4043 4.69003H5.4043C4.87386 4.69003 4.36516 4.90074 3.99008 5.27581C3.61501 5.65088 3.4043 6.15959 3.4043 6.69003V18.69C3.4043 19.2205 3.61501 19.7292 3.99008 20.1042C4.36516 20.4793 4.87386 20.69 5.4043 20.69H17.4043C17.9347 20.69 18.4434 20.4793 18.8185 20.1042C19.1936 19.7292 19.4043 19.2205 19.4043 18.69V14.69C19.4043 14.4248 19.5097 14.1705 19.6972 13.9829C19.8847 13.7954 20.1391 13.69 20.4043 13.69C20.6695 13.69 20.9239 13.7954 21.1114 13.9829C21.2989 14.1705 21.4043 14.4248 21.4043 14.69V18.69C21.4043 19.7509 20.9829 20.7683 20.2327 21.5185C19.4826 22.2686 18.4652 22.69 17.4043 22.69H5.4043C4.34343 22.69 3.32602 22.2686 2.57587 21.5185C1.82572 20.7683 1.4043 19.7509 1.4043 18.69V6.69003C1.4043 5.62916 1.82572 4.61174 2.57587 3.8616C3.32602 3.11145 4.34343 2.69003 5.4043 2.69003H9.4043Z" fill="white"/>
</svg>
