<svg width="160" height="65" viewBox="0 0 160 65" fill="none" xmlns="http://www.w3.org/2000/svg">
<path d="M56.7349 9.8501C50.3284 9.8501 45.1406 15.0286 45.1406 21.4238C45.1406 27.8189 50.3284 32.9974 56.7349 32.9974C63.1414 32.9974 68.3292 27.8148 68.3292 21.4238C68.3292 15.0327 63.1374 9.8501 56.7349 9.8501ZM56.7349 27.2633C53.5012 27.2633 50.8768 24.6477 50.8768 21.4238C50.8768 18.1998 53.5012 15.5761 56.7349 15.5761C59.9686 15.5761 62.5849 18.1958 62.5849 21.4238C62.5849 24.6517 59.9646 27.2633 56.7349 27.2633Z" fill="black"/>
<path d="M71.9009 35.5239H41.5664V41.3026H71.9009V35.5239Z" fill="black"/>
<path d="M39.5557 28.6909H27.6445V34.4696H39.5557V28.6909Z" fill="black"/>
<path d="M33.4335 25.8359H27.6445V48.74H33.4335V25.8359Z" fill="black"/>
<path d="M22.9489 42.9614H0V48.7401H22.9489V42.9614Z" fill="black"/>
<path d="M5.78902 25.7993H0V46.254H5.78902V25.7993Z" fill="black"/>
<path d="M22.9492 26.647H17.1602V47.1016H22.9492V26.647Z" fill="black"/>
<path d="M22.9489 25.7993H0V31.578H22.9489V25.7993Z" fill="black"/>
<path d="M116.856 28.6909H104.945V34.4696H116.856V28.6909Z" fill="black"/>
<path d="M110.734 25.8359H104.945V48.74H110.734V25.8359Z" fill="black"/>
<path d="M91.3789 20.126H85.5898V27.9323H91.3789V20.126Z" fill="black"/>
<path d="M100.198 25.7993H76.7734V31.578H100.198V25.7993Z" fill="black"/>
<path d="M160.001 28.6909H148.09V34.4696H160.001V28.6909Z" fill="black"/>
<path d="M153.879 25.8359H148.09V48.74H153.879V25.8359Z" fill="black"/>
<path d="M143.394 42.9614H120.445V48.7401H143.394V42.9614Z" fill="black"/>
<path d="M126.234 25.7993H120.445V46.254H126.234V25.7993Z" fill="black"/>
<path d="M68.2106 58.4805H45.2617V64.2592H68.2106V58.4805Z" fill="black"/>
<path d="M51.0507 46.4404H45.2617V59.2428H51.0507V46.4404Z" fill="black"/>
<path d="M68.2109 46.4404H62.4219V59.2428H68.2109V46.4404Z" fill="black"/>
<path d="M68.2106 45.5928H45.2617V51.3715H68.2106V45.5928Z" fill="black"/>
<path d="M88.2444 34.4531C82.037 34.4531 77.0117 39.4695 77.0117 45.6659C77.0117 51.8623 82.037 56.8786 88.2444 56.8786C94.4519 56.8786 99.4772 51.8542 99.4772 45.6659C99.4772 39.4776 94.4438 34.4531 88.2444 34.4531ZM88.2444 51.327C85.1123 51.327 82.5692 48.7925 82.5692 45.6659C82.5692 42.5393 85.1123 40.0007 88.2444 40.0007C91.3766 40.0007 93.9156 42.5393 93.9156 45.6659C93.9156 48.7925 91.3766 51.327 88.2444 51.327Z" fill="black"/>
<path d="M136.426 24.0858L123.301 12.1689V5.37317L128.497 0H133.511L136.727 3.02393L140.183 0H145.197L150.397 5.37317V12.1689L141.826 19.9482L137.272 24.0858H136.426Z" fill="black"/>
</svg>
