<svg width="1920" height="403" viewBox="0 0 1920 403" fill="none" xmlns="http://www.w3.org/2000/svg">
<path d="M1463.18 44.9135C1480.77 44.9135 1498.35 44.9135 1515.94 44.9135C1518.85 44.9135 1518.85 40.4009 1515.94 40.4009C1498.35 40.4009 1480.77 40.4009 1463.18 40.4009C1460.27 40.4009 1460.27 44.9135 1463.18 44.9135Z" fill="black"/>
<path d="M1487.14 2.17696C1487.73 26.5751 1488.32 50.9732 1488.91 75.3713C1489.07 82.2845 1489.24 89.2092 1489.4 96.1224C1489.47 99.0192 1493.99 99.0307 1493.92 96.1224C1493.33 71.7242 1492.74 47.3261 1492.15 22.928C1491.99 16.0149 1491.82 9.09014 1491.65 2.17696C1491.58 -0.71988 1487.07 -0.731422 1487.14 2.17696Z" fill="black"/>
<path d="M1477.08 72.9241C1484.45 54.8736 1494.42 37.8388 1506.54 22.5698C1507.3 21.6119 1507.48 20.3077 1506.54 19.3729C1505.76 18.5881 1504.11 18.415 1503.35 19.3729C1490.7 35.2998 1480.41 52.8886 1472.72 71.7238C1472.25 72.8549 1473.21 74.2052 1474.3 74.5053C1475.59 74.863 1476.62 74.0667 1477.08 72.9241Z" fill="black"/>
<path d="M1468.8 22.57C1482.29 37.0311 1495.79 51.4807 1509.27 65.9418C1511.25 68.0654 1514.44 64.8685 1512.46 62.7449C1498.97 48.2838 1485.48 33.8342 1472 19.3731C1470.01 17.2495 1466.83 20.4464 1468.8 22.57Z" fill="black"/>
<path d="M1829.8 148.271C1845.23 148.271 1860.65 148.271 1876.09 148.271C1878.64 148.271 1878.64 144.311 1876.09 144.311C1860.65 144.311 1845.23 144.311 1829.8 144.311C1827.24 144.311 1827.24 148.271 1829.8 148.271Z" fill="black"/>
<path d="M1850.82 110.771C1851.34 132.179 1851.85 153.587 1852.37 174.995C1852.51 181.061 1852.66 187.137 1852.81 193.203C1852.87 195.745 1856.83 195.755 1856.77 193.203C1856.25 171.795 1855.73 150.387 1855.22 128.979C1855.07 122.913 1854.92 116.837 1854.78 110.771C1854.72 108.23 1850.76 108.22 1850.82 110.771Z" fill="black"/>
<path d="M1841.99 172.848C1848.46 157.01 1857.21 142.063 1867.84 128.665C1868.51 127.825 1868.66 126.68 1867.84 125.86C1867.16 125.171 1865.71 125.019 1865.04 125.86C1853.94 139.835 1844.92 155.268 1838.16 171.795C1837.76 172.787 1838.6 173.972 1839.55 174.236C1840.68 174.549 1841.59 173.851 1841.99 172.848Z" fill="black"/>
<path d="M1834.73 128.665C1846.57 141.354 1858.41 154.033 1870.23 166.722C1871.97 168.585 1874.77 165.78 1873.04 163.917C1861.2 151.228 1849.36 138.549 1837.53 125.86C1835.79 123.997 1833 126.802 1834.73 128.665Z" fill="black"/>
<path d="M322.559 269.331C343.161 269.331 363.75 269.331 384.352 269.331C387.758 269.331 387.758 264.045 384.352 264.045C363.75 264.045 343.161 264.045 322.559 264.045C319.153 264.045 319.153 269.331 322.559 269.331Z" fill="black"/>
<path d="M350.623 219.273C351.313 247.85 352.002 276.428 352.692 305.006C352.881 313.103 353.084 321.214 353.273 329.312C353.354 332.705 358.64 332.718 358.559 329.312C357.869 300.734 357.18 272.156 356.491 243.578C356.301 235.481 356.098 227.37 355.909 219.273C355.828 215.879 350.542 215.866 350.623 219.273Z" fill="black"/>
<path d="M338.836 302.139C347.474 280.997 359.154 261.044 373.348 243.159C374.24 242.037 374.443 240.509 373.348 239.414C372.429 238.495 370.496 238.292 369.603 239.414C354.787 258.07 342.742 278.672 333.726 300.733C333.185 302.058 334.307 303.64 335.578 303.991C337.092 304.41 338.295 303.478 338.836 302.139Z" fill="black"/>
<path d="M329.143 243.159C344.946 260.098 360.749 277.023 376.538 293.961C378.864 296.448 382.595 292.704 380.283 290.216C364.48 273.278 348.677 256.353 332.888 239.415C330.563 236.927 326.832 240.672 329.143 243.159Z" fill="black"/>
<path d="M49.1907 364.409C61.7998 364.409 74.4006 364.409 87.0097 364.409C89.0947 364.409 89.0947 361.174 87.0097 361.174C74.4006 361.174 61.7998 361.174 49.1907 361.174C47.1057 361.174 47.1057 364.409 49.1907 364.409Z" fill="black"/>
<path d="M66.3668 333.771C66.7887 351.262 67.2107 368.752 67.6327 386.243C67.7485 391.199 67.8727 396.163 67.9885 401.119C68.0381 403.196 71.2731 403.204 71.2234 401.119C70.8015 383.629 70.3796 366.138 69.9576 348.647C69.8418 343.691 69.7176 338.727 69.6018 333.771C69.5522 331.695 66.3171 331.686 66.3668 333.771Z" fill="black"/>
<path d="M59.1526 384.489C64.4395 371.549 71.588 359.337 80.2754 348.391C80.8214 347.704 80.9455 346.769 80.2754 346.099C79.7128 345.536 78.5296 345.412 77.9835 346.099C68.9156 357.516 61.5437 370.126 56.0252 383.628C55.6942 384.439 56.3809 385.407 57.1587 385.622C58.0853 385.879 58.8217 385.308 59.1526 384.489Z" fill="black"/>
<path d="M53.2202 348.391C62.8922 358.758 72.5641 369.116 82.2278 379.483C83.6509 381.006 85.9344 378.714 84.5196 377.192C74.8477 366.825 65.1757 356.466 55.5121 346.099C54.089 344.577 51.8054 346.869 53.2202 348.391Z" fill="black"/>
<path d="M1576.86 325.468C1590.16 322.602 1604.41 319.518 1617.48 324.926C1622.45 326.978 1627 330.487 1629.66 335.162C1632.5 340.161 1633.13 346.043 1632.28 351.666C1631.43 357.288 1629.05 362.98 1625.41 367.343C1622.46 370.892 1616.17 373.827 1613.79 368.529C1611.94 364.423 1614.39 360.079 1618.18 357.622C1623.13 354.416 1629.39 353.586 1635.17 354.417C1648.5 356.335 1658.15 368.283 1657.74 381.476C1657.59 386.569 1665.6 386.881 1665.75 381.771C1666.25 366.112 1655.71 351.438 1640.27 347.415C1632.66 345.424 1624.43 345.864 1617.23 349.114C1610.73 352.042 1604.95 358.178 1605.15 365.629C1605.36 373.08 1611.06 380.021 1619.25 379.341C1628.07 378.606 1633.61 370.845 1636.97 363.51C1643.38 349.557 1641.51 332.559 1629.02 322.58C1613.64 310.277 1592.73 313.924 1575.01 317.735C1569.98 318.816 1571.81 326.548 1576.86 325.452L1576.86 325.468Z" fill="black"/>
<path d="M131.802 49.485C140.833 47.5389 150.51 45.4445 159.387 49.1166C162.761 50.51 165.847 52.893 167.654 56.0674C169.584 59.4614 170.012 63.4559 169.437 67.2735C168.861 71.0911 167.239 74.956 164.771 77.9187C162.768 80.3287 158.498 82.3217 156.881 78.7242C155.624 75.9357 157.288 72.9863 159.861 71.3178C163.225 69.1409 167.475 68.5773 171.401 69.1417C180.452 70.4438 187.002 78.557 186.726 87.5149C186.62 90.9735 192.059 91.1851 192.165 87.7158C192.503 77.0827 185.348 67.1191 174.86 64.3876C169.691 63.0354 164.103 63.3344 159.216 65.5411C154.804 67.5288 150.878 71.6957 151.017 76.7548C151.156 81.814 155.027 86.5269 160.589 86.0656C166.576 85.5663 170.336 80.2965 172.619 75.316C176.969 65.8419 175.7 54.2999 167.22 47.5241C156.776 39.1703 142.583 41.6462 130.55 44.2342C127.131 44.9681 128.372 50.2186 131.803 49.4743L131.802 49.485Z" fill="black"/>
</svg>
