<svg width="167" height="35" viewBox="0 0 167 35" fill="none" xmlns="http://www.w3.org/2000/svg">
<g opacity="0.1" clip-path="url(#clip0_3421_26331)">
<path d="M31.1442 17.2754C26.4129 17.2754 22.5735 21.1114 22.5735 25.8495C22.5735 30.5875 26.4095 34.4202 31.1442 34.4202C35.8789 34.4202 39.7183 30.5841 39.7183 25.8495C39.7183 21.1148 35.8822 17.2754 31.1442 17.2754ZM31.3119 30.1315C28.9948 30.1315 27.2076 28.1665 27.2076 25.8495C27.2076 23.5324 29.082 21.6546 31.399 21.6546C33.7161 21.6546 35.5939 23.5324 35.5939 25.8495C35.5939 28.1665 33.6289 30.1315 31.3119 30.1315Z" fill="black"/>
<path d="M39.9966 17.4836H36.2914V34.0919H39.9966V17.4836Z" fill="black"/>
<path d="M117.143 17.2788C112.412 17.2788 108.573 21.1148 108.573 25.8529C108.573 30.5909 112.409 34.4236 117.143 34.4236C121.878 34.4236 125.717 30.5876 125.717 25.8529C125.717 21.1182 121.881 17.2788 117.143 17.2788ZM117.314 30.1349C114.997 30.1349 113.21 28.1699 113.21 25.8529C113.21 23.5358 115.084 21.6581 117.401 21.6581C119.718 21.6581 121.596 23.5358 121.596 25.8529C121.596 28.1699 119.631 30.1349 117.314 30.1349Z" fill="black"/>
<path d="M125.999 17.4836H122.294V34.0919H125.999V17.4836Z" fill="black"/>
<path d="M157.888 17.2788C153.156 17.2788 149.317 21.1148 149.317 25.8529C149.317 30.5909 153.153 34.4236 157.888 34.4236C162.622 34.4236 166.462 30.5876 166.462 25.8529C166.462 21.1182 162.626 17.2788 157.888 17.2788ZM158.059 30.1349C155.742 30.1349 153.954 28.1699 153.954 25.8529C153.954 23.5358 155.829 21.6581 158.146 21.6581C160.463 21.6581 162.341 23.5358 162.341 25.8529C162.341 28.1699 160.376 30.1349 158.059 30.1349Z" fill="black"/>
<path d="M166.74 17.4836H163.035V34.0919H166.74V17.4836Z" fill="black"/>
<path d="M16.0282 34.4204H19.9648L19.9648 17.4835H16.0282L16.0282 34.4204Z" fill="black"/>
<path d="M19.9648 17.4836H15.6526L9.98242 27.8081V34.4205H11.3706L19.9648 19.3882V17.4836Z" fill="black"/>
<path d="M3.93663 17.4836H0V34.4205H3.93663V17.4836Z" fill="black"/>
<path d="M0 17.4836H4.31218L9.9824 27.8081V34.4205H8.59419L0 19.3882V17.4836Z" fill="black"/>
<path d="M79.0578 34.4204H82.9944V17.4835H79.0578V34.4204Z" fill="black"/>
<path d="M82.9978 17.4836H78.6823L73.0154 27.8081V34.4205H74.4037L82.9978 19.3882V17.4836Z" fill="black"/>
<path d="M66.9663 17.4836H63.0297V34.4205H66.9663V17.4836Z" fill="black"/>
<path d="M63.0297 17.4836H67.3452L73.0154 27.8081V34.4205H71.6239L63.0297 19.3882V17.4836Z" fill="black"/>
<path d="M55.7667 27.3787C55.6762 29.7158 53.8889 31.3522 51.5719 31.3522C49.2548 31.3522 47.4743 29.7158 47.3737 27.3787H42.9978C42.9978 32.11 46.8338 35.1178 51.5685 35.1178C56.3032 35.1178 60.1359 32.1133 60.1359 27.3787H55.76H55.7667Z" fill="black"/>
<path d="M47.3769 27.3789V17.4836H43.0044V27.3789L45.1907 29.1929L47.3769 27.3789Z" fill="black"/>
<path d="M60.1425 27.3789V17.4836H55.7666V27.3789L57.9562 29.1929L60.1425 27.3789Z" fill="black"/>
<path d="M132.94 17.4836H129.003V34.4205H132.94V17.4836Z" fill="black"/>
<path d="M146.718 17.4836H142.782V34.4205H146.718V17.4836Z" fill="black"/>
<path d="M129.003 17.4836H133.178L143.898 29.1259L143.569 34.4205H142.403L129.003 19.7772V17.4836Z" fill="black"/>
<path d="M102.641 24.0188H87.0619V27.9286H102.641V24.0188Z" fill="black"/>
<path d="M90.2071 17.4836H86.0022V34.4205H90.2071V17.4836Z" fill="black"/>
<path d="M105.964 17.4836H101.759V34.4205H105.964V17.4836Z" fill="black"/>
<path d="M133.208 17.4836H129.003V34.4205H133.208V17.4836Z" fill="black"/>
<path d="M146.718 17.4836H142.513V34.4205H146.718V17.4836Z" fill="black"/>
<path d="M149.746 16.4507L140.783 8.31252V3.67173L144.334 0H147.758L149.954 2.06556L152.311 0H155.735L159.286 3.67173V8.31252L153.435 13.6273L150.323 16.4507H149.746Z" fill="black"/>
</g>
<defs>
<clipPath id="clip0_3421_26331">
<rect width="167" height="35" fill="white"/>
</clipPath>
</defs>
</svg>
