<svg width="1229" height="184" viewBox="0 0 1229 184" fill="none" xmlns="http://www.w3.org/2000/svg">
<path d="M842.712 26.9599C853.27 26.9599 863.821 26.9599 874.379 26.9599C876.125 26.9599 876.125 24.2511 874.379 24.2511C863.821 24.2511 853.27 24.2511 842.712 24.2511C840.966 24.2511 840.966 26.9599 842.712 26.9599Z" fill="black"/>
<path d="M857.094 1.30676C857.448 15.9521 857.801 30.5975 858.154 45.2428C858.251 49.3926 858.355 53.5493 858.452 57.699C858.494 59.4379 861.202 59.4448 861.161 57.699C860.808 43.0536 860.454 28.4083 860.101 13.7629C860.004 9.61318 859.9 5.45651 859.803 1.30676C859.761 -0.43212 857.053 -0.439048 857.094 1.30676Z" fill="black"/>
<path d="M851.053 43.7737C855.48 32.9386 861.466 22.7132 868.74 13.5477C869.197 12.9727 869.301 12.1899 868.74 11.6287C868.269 11.1576 867.278 11.0537 866.821 11.6287C859.228 21.1891 853.055 31.7471 848.435 43.0532C848.158 43.7321 848.733 44.5427 849.384 44.7228C850.16 44.9376 850.776 44.4595 851.053 43.7737Z" fill="black"/>
<path d="M846.084 13.5483C854.182 22.2288 862.281 30.9024 870.373 39.5829C871.564 40.8576 873.476 38.9387 872.292 37.6639C864.193 28.9834 856.095 20.3098 848.003 11.6293C846.811 10.3546 844.899 12.2736 846.084 13.5483Z" fill="black"/>
<path d="M1195.86 86.5815C1206.41 86.5815 1216.97 86.5815 1227.52 86.5815C1229.27 86.5815 1229.27 83.8727 1227.52 83.8727C1216.97 83.8727 1206.41 83.8727 1195.86 83.8727C1194.11 83.8727 1194.11 86.5815 1195.86 86.5815Z" fill="black"/>
<path d="M1211.38 60.7352C1211.74 75.3806 1212.09 90.026 1212.44 104.671C1212.54 108.821 1212.64 112.978 1212.74 117.127C1212.78 118.866 1215.49 118.873 1215.45 117.127C1215.1 102.482 1214.74 87.8368 1214.39 73.1914C1214.29 69.0416 1214.19 64.885 1214.09 60.7352C1214.05 58.9963 1211.34 58.9894 1211.38 60.7352Z" fill="black"/>
<path d="M1204.2 103.395C1208.62 92.5602 1214.61 82.3348 1221.88 73.1693C1222.34 72.5943 1222.45 71.8115 1221.88 71.2503C1221.41 70.7792 1220.42 70.6753 1219.97 71.2503C1212.37 80.8107 1206.2 91.3686 1201.58 102.675C1201.3 103.354 1201.88 104.164 1202.53 104.344C1203.3 104.559 1203.92 104.081 1204.2 103.395Z" fill="black"/>
<path d="M1200.37 72.9767C1208.47 81.6573 1216.57 90.3309 1224.66 99.0114C1225.85 100.286 1227.77 98.3671 1226.58 97.0924C1218.48 88.4119 1210.38 79.7383 1202.29 71.0577C1201.1 69.783 1199.19 71.702 1200.37 72.9767Z" fill="black"/>
<path d="M404.152 143.91C417.096 143.91 430.032 143.91 442.977 143.91C445.117 143.91 445.117 140.589 442.977 140.589C430.032 140.589 417.096 140.589 404.152 140.589C402.012 140.589 402.012 143.91 404.152 143.91Z" fill="black"/>
<path d="M421.786 112.458C422.219 130.414 422.652 148.369 423.085 166.325C423.204 171.413 423.332 176.509 423.451 181.596C423.502 183.728 426.822 183.737 426.771 181.596C426.338 163.641 425.905 145.685 425.472 127.73C425.353 122.642 425.226 117.546 425.107 112.458C425.056 110.326 421.735 110.318 421.786 112.458Z" fill="black"/>
<path d="M414.38 164.524C419.808 151.24 427.146 138.703 436.064 127.466C436.625 126.761 436.752 125.801 436.064 125.113C435.487 124.536 434.272 124.408 433.712 125.113C424.403 136.835 416.835 149.779 411.17 163.64C410.83 164.473 411.535 165.467 412.333 165.687C413.284 165.951 414.04 165.365 414.38 164.524Z" fill="black"/>
<path d="M408.289 127.466C418.218 138.109 428.147 148.743 438.068 159.385C439.529 160.948 441.873 158.596 440.421 157.033C430.492 146.39 420.562 135.756 410.642 125.114C409.181 123.551 406.837 125.904 408.289 127.466Z" fill="black"/>
<path d="M239.716 58.0203C237.997 51.2636 236.148 44.0231 238.67 37.2254C239.627 34.6425 241.338 32.2481 243.682 30.7967C246.188 29.247 249.189 28.8124 252.084 29.1404C254.98 29.4684 257.94 30.5835 260.243 32.3629C262.117 33.8061 263.739 36.9713 261.07 38.2914C259.002 39.3164 256.731 38.1438 255.401 36.2497C253.666 33.7733 253.122 30.5835 253.439 27.607C254.169 20.7437 260.105 15.5778 266.869 15.5368C269.481 15.5204 269.489 11.4122 266.869 11.4286C258.84 11.4696 251.525 17.1439 249.757 25.1306C248.881 29.0666 249.262 33.2731 251.062 36.8975C252.684 40.1692 255.937 43.0146 259.748 42.7686C263.56 42.5226 267.007 39.4722 266.504 35.2903C265.961 30.7885 261.881 28.099 258.062 26.5164C250.795 23.4989 242.125 24.778 237.251 31.3625C231.241 39.4722 233.504 50.1075 235.791 59.1109C236.44 61.6693 240.365 60.5869 239.708 58.0203H239.716Z" fill="black"/>
<path d="M969.598 136.689C976.413 135.221 983.717 133.64 990.417 136.411C992.963 137.463 995.292 139.262 996.656 141.657C998.112 144.219 998.436 147.234 998.001 150.115C997.567 152.996 996.343 155.913 994.48 158.149C992.969 159.968 989.746 161.472 988.525 158.757C987.577 156.653 988.833 154.427 990.775 153.167C993.313 151.524 996.521 151.099 999.484 151.525C1006.32 152.508 1011.26 158.631 1011.05 165.392C1010.97 168.002 1015.08 168.162 1015.16 165.543C1015.41 157.518 1010.01 149.998 1002.09 147.937C998.193 146.916 993.976 147.142 990.287 148.807C986.958 150.308 983.994 153.453 984.1 157.271C984.205 161.089 987.126 164.646 991.323 164.298C995.842 163.921 998.681 159.944 1000.4 156.185C1003.69 149.035 1002.73 140.323 996.328 135.209C988.446 128.905 977.734 130.773 968.653 132.726C966.072 133.28 967.009 137.243 969.598 136.681L969.598 136.689Z" fill="black"/>
<path d="M44.1266 102.85C43.2578 109.768 42.333 117.183 37.5009 122.589C35.6661 124.643 33.1982 126.247 30.486 126.741C27.5869 127.268 24.6349 126.576 22.0597 125.212C19.4845 123.849 17.1366 121.729 15.6429 119.231C14.4265 117.203 14.0734 113.664 17.0395 113.41C19.3392 113.212 21.0244 115.133 21.5702 117.382C22.2808 120.322 21.6209 123.489 20.2387 126.145C17.051 132.266 9.637 134.905 3.32597 132.472C0.889127 131.532 -0.619766 135.353 1.82463 136.296C9.31334 139.192 18.1964 136.583 22.7609 129.795C25.0147 126.452 26.1972 122.397 25.8458 118.365C25.5316 114.727 23.5443 110.89 19.9062 109.726C16.2682 108.562 11.945 110.141 10.8848 114.218C9.74539 118.607 12.5597 122.601 15.537 125.47C21.1983 130.935 29.7359 132.912 36.6794 128.565C45.2371 123.212 47.0176 112.486 48.1791 103.269C48.5101 100.651 44.4607 100.224 44.1342 102.853L44.1266 102.85Z" fill="black"/>
</svg>
