<svg width="108" height="108" viewBox="0 0 108 108" fill="none" xmlns="http://www.w3.org/2000/svg">
<rect width="108" height="108" rx="54" fill="#FEF9EC"/>
<path d="M37.1314 75.7121C49.8322 74.6375 57.2517 61.4075 59.8005 50.2727C60.5187 47.1407 60.9345 43.8845 60.4539 40.7093C59.9733 37.5287 58.5153 34.4129 56.0043 32.4041C50.5665 28.0517 42.7042 31.8101 37.9144 35.4605C34.0048 38.4413 30.8567 42.5615 26.3315 44.4677C24.3389 45.3101 22.1681 45.6773 20.1755 46.5251C18.1829 47.3729 16.2767 48.8849 15.8069 50.9963C15.3371 53.1077 16.9895 55.6727 19.1441 55.4513C17.9615 56.5475 16.7195 57.7463 16.3523 59.3177C15.9419 61.0727 16.7843 62.9897 18.2153 64.0913C19.6463 65.1929 21.5579 65.5493 23.3453 65.3171C22.3139 66.6941 22.4759 68.7083 23.3615 70.1879C24.2471 71.6675 25.7266 72.6881 27.2494 73.4927C30.2788 75.0911 33.724 76.0091 37.1368 75.7229L37.1314 75.7121Z" fill="#F5C140"/>
<path d="M37.1338 76.6031C40.5034 76.3115 43.738 75.1937 46.5676 73.3361C49.3809 71.4947 51.7299 69.0593 53.6955 66.3485C55.6827 63.6107 57.2433 60.5813 58.4961 57.4439C59.8191 54.1229 60.8073 50.6291 61.2879 47.0867C61.8711 42.7721 61.5201 38.1497 59.0361 34.4345C57.9399 32.7983 56.4657 31.3565 54.6675 30.5195C52.9773 29.7311 51.109 29.4449 49.2514 29.5961C45.4876 29.8985 41.9128 31.6103 38.8294 33.7055C35.5732 35.9195 32.965 38.8733 29.8762 41.2925C28.3858 42.4643 26.6578 43.4741 24.8111 44.0897C22.7105 44.7917 20.4857 45.2183 18.5525 46.3469C16.8947 47.3135 15.3773 48.8309 14.9507 50.7641C14.5511 52.5677 15.2963 54.5279 16.7705 55.6349C17.4455 56.1425 18.3041 56.4179 19.1465 56.3423C18.9359 55.8347 18.7253 55.3271 18.5147 54.8195C16.8677 56.3531 15.1397 58.2107 15.3773 60.6461C15.6149 63.0815 17.2619 64.9337 19.4759 65.7815C20.6909 66.2459 22.057 66.3593 23.3422 66.2027L22.5755 64.8635C21.7439 66.0083 21.5927 67.5041 21.8843 68.8595C22.1813 70.2257 23.0021 71.4407 24.028 72.3695C25.054 73.2983 26.2961 74.0381 27.5543 74.6429C28.969 75.3233 30.454 75.8687 31.9876 76.2143C33.6724 76.5923 35.4112 76.7489 37.1338 76.6139C37.6144 76.5761 38.0248 76.2305 38.0248 75.7229C38.0248 75.2693 37.6144 74.7941 37.1338 74.8319C34.4284 75.0479 31.7176 74.5187 29.2228 73.4549C28.0456 72.9527 26.8846 72.3479 25.8532 71.5865C25.0216 70.9709 24.1684 70.0529 23.8174 69.1241C23.3746 67.9523 23.3801 66.7751 24.1091 65.7653C24.4817 65.2523 23.9902 64.3451 23.3422 64.4261C21.5116 64.6529 19.5677 64.3019 18.2825 62.9573C17.0999 61.7261 16.7759 59.9819 17.6345 58.4915C18.1691 57.5681 18.9791 56.8229 19.7729 56.0831C20.3129 55.5809 19.9187 54.4955 19.1411 54.5603C19.0547 54.5657 18.9683 54.5711 18.8873 54.5711C18.8333 54.5711 18.7739 54.5711 18.7199 54.5711C18.7091 54.5711 18.5741 54.5549 18.6713 54.5711C18.7523 54.5819 18.5471 54.5441 18.5093 54.5333C18.4175 54.5117 18.3257 54.4793 18.2393 54.4469C18.2069 54.4361 18.0881 54.3767 18.2285 54.4469C18.1907 54.4307 18.1529 54.4145 18.1205 54.3929C18.0503 54.3497 17.9747 54.3119 17.9099 54.2687C17.8775 54.2471 17.7155 54.1337 17.7641 54.1715C17.8343 54.2255 17.7317 54.1391 17.7263 54.1391C17.6777 54.0905 17.6237 54.0473 17.5697 53.9987C17.5103 53.9393 17.4509 53.8799 17.3915 53.8151C17.3645 53.7827 17.2403 53.6315 17.2727 53.6747C17.2349 53.6261 17.0675 53.3615 16.9919 53.2211C16.9487 53.1455 16.9109 53.0645 16.8731 52.9889C16.8299 52.8971 16.8731 52.9835 16.8731 52.9997C16.8515 52.9457 16.8299 52.8917 16.8137 52.8377C16.7489 52.6595 16.7057 52.4759 16.6625 52.2869C16.6625 52.2653 16.6247 52.0871 16.6409 52.1897C16.6571 52.2815 16.6355 52.1411 16.6355 52.1357C16.6301 52.0493 16.6193 51.9629 16.6193 51.8765C16.6193 51.7901 16.6193 51.7037 16.6193 51.6173C16.6193 51.5579 16.6571 51.2717 16.6301 51.4229C16.6625 51.2339 16.7111 51.0503 16.7651 50.8721C16.8461 50.6237 16.8785 50.5427 16.9703 50.3591C17.3483 49.6085 17.8775 49.0253 18.5255 48.5177C20.0321 47.3297 21.9868 46.8167 23.8444 46.2713C25.8262 45.6881 27.7108 44.9591 29.4388 43.8089C32.6464 41.6813 35.1844 38.7437 38.1976 36.3731C40.8544 34.2833 43.9918 32.5175 47.2858 31.7237C48.1606 31.5131 48.8194 31.4105 49.678 31.3727C50.11 31.3511 50.5473 31.3565 50.9793 31.3889C51.4383 31.4213 51.6165 31.4483 52.0647 31.5401C53.7441 31.8911 55.1373 32.7011 56.3415 33.9431C59.0307 36.7187 59.9055 40.7417 59.7381 44.5703C59.5761 48.1829 58.6419 51.7901 57.4485 55.1921C57.1893 55.9265 56.9139 56.6555 56.6169 57.3737C56.5791 57.4709 56.5359 57.5681 56.4981 57.6653C56.4387 57.8057 56.5089 57.6437 56.4495 57.7841C56.3685 57.9785 56.2821 58.1729 56.1957 58.3673C56.0337 58.7291 55.8717 59.0855 55.7043 59.4419C55.0185 60.8837 54.2517 62.2877 53.3985 63.6323C51.7354 66.2567 49.7968 68.6057 47.3182 70.6199C46.9996 70.8791 46.8861 70.9655 46.5243 71.2301C46.2165 71.4515 45.9034 71.6675 45.5902 71.8727C44.9422 72.2939 44.2726 72.6773 43.5814 73.0229C43.2412 73.1903 42.8956 73.3523 42.55 73.5035C42.415 73.5629 42.658 73.4603 42.5176 73.5143C42.4744 73.5305 42.4366 73.5467 42.3934 73.5629C42.3124 73.5953 42.2314 73.6277 42.1504 73.6601C41.956 73.7357 41.767 73.8059 41.5726 73.8761C40.8436 74.1353 40.0984 74.3459 39.3424 74.5079C38.959 74.5943 38.5702 74.6645 38.1814 74.7239C38.0896 74.7401 37.9978 74.7509 37.906 74.7617C38.0356 74.7455 37.8142 74.7725 37.7764 74.7779C37.5604 74.8049 37.3444 74.8265 37.1284 74.8427C36.6478 74.8859 36.2374 75.2207 36.2374 75.7337C36.2374 76.1819 36.6478 76.6679 37.1284 76.6247L37.1338 76.6031Z" fill="black"/>
<path d="M41.5962 46.2119C47.8062 44.2841 53.6814 41.2547 58.8545 37.3181C62.7911 41.4545 67.5539 44.7971 72.7865 47.0867C74.0339 47.6321 75.3353 48.1289 76.6961 48.2261C77.9867 48.3233 79.2287 48.0641 80.4166 47.5997C80.3734 47.6159 80.3303 47.6267 80.2871 47.6483C77.3117 37.0265 67.5647 29.2289 55.9926 29.2289C44.4204 29.2289 35.1163 36.6755 31.9141 46.9301C35.0083 47.8535 38.4642 47.1785 41.5962 46.2065V46.2119Z" fill="#F5C140"/>
<path d="M41.8351 47.0704C46.7329 45.5422 51.4363 43.3606 55.7509 40.5796C56.9659 39.7966 58.1539 38.965 59.3095 38.0902L58.2295 37.9498C60.5029 40.3312 63.0463 42.4588 65.7894 44.284C67.1286 45.175 68.5219 45.9904 69.9528 46.7248C71.454 47.497 73.02 48.2584 74.6454 48.7444C76.6542 49.3384 78.7116 49.2196 80.6556 48.4636C81.1038 48.2908 81.417 47.8642 81.2766 47.3674C81.1578 46.93 80.634 46.579 80.1804 46.7464C80.1372 46.7626 80.094 46.7788 80.0508 46.795L81.147 47.416C79.9698 43.2418 77.7558 39.3916 74.7372 36.2758C71.7402 33.1816 67.971 30.8542 63.8671 29.5528C59.5687 28.192 54.9247 27.9922 50.5183 28.921C46.1119 29.8498 42.2563 31.8424 38.9461 34.6828C35.663 37.5016 33.1304 41.1466 31.5806 45.1858C31.3862 45.688 31.2134 46.1902 31.0514 46.7032C30.9056 47.1676 31.2242 47.6698 31.6724 47.7994C35.015 48.7714 38.579 48.0802 41.8297 47.0758C42.2887 46.9354 42.5803 46.4548 42.4507 45.9796C42.3211 45.5044 41.8135 45.2128 41.3545 45.3586C38.4062 46.2712 35.1878 46.9678 32.1476 46.0822L32.7686 47.1784C33.3896 45.1966 34.1834 43.4578 35.3012 41.6542C36.392 39.8992 37.5637 38.4412 39.0757 36.9778C41.9701 34.1698 45.5611 32.1016 49.4545 31.0216C53.4991 29.8984 57.8299 29.839 61.8853 30.8542C63.9481 31.3672 65.7192 32.0584 67.5444 33.052C68.4516 33.5434 69.3264 34.0942 70.1688 34.6936C70.941 35.2444 71.6538 35.8222 72.4152 36.5242C73.1604 37.21 73.8624 37.939 74.5212 38.7058C75.1854 39.4834 75.6822 40.1368 76.2654 41.0224C76.8378 41.8864 77.3508 42.7828 77.8152 43.7062C78.2796 44.6296 78.6036 45.4018 78.9546 46.417C79.1274 46.9084 79.2786 47.3998 79.419 47.902C79.5432 48.334 80.0616 48.6958 80.5152 48.523C80.5584 48.5068 80.6016 48.4906 80.6448 48.4744L80.1696 46.7572C78.636 47.3512 77.07 47.551 75.4608 47.1352C73.8516 46.7194 72.4584 46.0174 71.0436 45.3046C68.3112 43.9168 65.7138 42.2428 63.3487 40.2988C61.9879 39.181 60.6919 37.9768 59.4769 36.7024C59.2339 36.4432 58.6993 36.3298 58.3969 36.562C54.4171 39.5806 50.0323 42.0916 45.3883 43.9384C44.0599 44.4676 42.7153 44.9428 41.3491 45.364C40.8901 45.5098 40.5985 45.985 40.7281 46.4602C40.8577 46.9354 41.3653 47.227 41.8243 47.0812L41.8351 47.0704Z" fill="black"/>
<path d="M82.7051 47.1622C81.8951 47.1622 81.1229 47.3242 80.4101 47.605C79.2221 48.0748 77.9802 48.3286 76.6896 48.2314C75.3288 48.1288 74.0328 47.6374 72.78 47.092C67.5528 44.8024 62.7846 41.4598 58.848 37.3234C53.6695 41.26 47.7997 44.284 41.5897 46.2172C38.4577 47.1892 35.0017 47.8642 31.9076 46.9408C31.832 47.1892 31.7509 47.4376 31.6807 47.686C30.9193 47.3512 30.0824 47.1676 29.1968 47.1676C25.7678 47.1676 22.9922 49.9432 22.9922 53.3722C22.9922 56.8012 25.7678 59.5768 29.1968 59.5768C29.8988 59.5768 30.5737 59.4526 31.2055 59.2366C33.4357 70.8952 43.6795 79.708 55.986 79.708C68.2926 79.708 78.5256 70.906 80.7612 59.2636C81.3714 59.4634 82.0248 59.5768 82.6998 59.5768C86.1287 59.5768 88.9043 56.8012 88.9043 53.3722C88.9043 49.9432 86.1287 47.1676 82.6998 47.1676L82.7051 47.1622Z" fill="#FFE3D4"/>
<path d="M82.699 46.2712C81.727 46.282 80.8414 46.5034 79.9396 46.8328C79.135 47.1298 78.2926 47.335 77.4286 47.3566C75.6521 47.4052 73.9727 46.6762 72.3905 45.9418C69.3341 44.527 66.4289 42.7504 63.7937 40.6444C62.2655 39.424 60.8237 38.101 59.4737 36.6862C59.2307 36.427 58.6961 36.3136 58.3937 36.5458C55.4237 38.803 52.2323 40.7578 48.8736 42.3832C47.2266 43.177 45.5417 43.8898 43.8246 44.5162C42.1074 45.1426 40.2012 45.7582 38.3328 46.1362C36.2916 46.5466 34.1532 46.6654 32.1336 46.0768C31.6584 45.9364 31.1778 46.2442 31.0374 46.6978C30.9618 46.9462 30.8862 47.1946 30.8106 47.443L32.1174 46.9084C30.222 46.0984 28.1754 46.066 26.28 46.8922C24.7842 47.5456 23.5098 48.7768 22.8078 50.251C22.0518 51.844 21.8737 53.68 22.3813 55.3756C22.8727 57.0118 23.9472 58.4212 25.3782 59.3446C27.1602 60.4948 29.4282 60.7486 31.4316 60.0844L30.3354 59.4634C31.221 64.0534 33.3756 68.3464 36.4752 71.8402C39.564 75.3178 43.5924 77.9314 48.0149 79.3516C52.4375 80.7718 57.6269 80.977 62.3141 79.8106C66.8231 78.6928 71.0027 76.3276 74.3129 73.066C77.6176 69.8098 80.0368 65.6626 81.2248 61.1752C81.3706 60.6136 81.5002 60.052 81.6136 59.4796L80.5174 60.1006C83.7358 61.1266 87.3646 59.701 88.9522 56.6986C90.4372 53.8906 89.8702 50.3104 87.5212 48.1504C86.2036 46.9408 84.4864 46.2658 82.6936 46.255C81.5488 46.2442 81.5434 48.0262 82.6936 48.037C82.8664 48.037 83.0392 48.0424 83.212 48.0586C83.2876 48.064 83.3686 48.0694 83.4442 48.0802C83.2714 48.0586 83.5684 48.1018 83.5738 48.1018C83.9032 48.1612 84.2272 48.2476 84.5404 48.361C84.5944 48.3826 84.6538 48.4042 84.7078 48.4258C84.9778 48.523 84.5674 48.3502 84.8266 48.4744C84.9616 48.5392 85.0966 48.604 85.2262 48.6742C85.3558 48.7444 85.4854 48.82 85.6096 48.901C85.669 48.9388 85.7338 48.982 85.7932 49.0252C85.8202 49.0414 86.047 49.2142 85.9336 49.1224C86.4196 49.5058 86.8354 49.9648 87.1054 50.3698C87.4942 50.9584 87.6724 51.3472 87.8398 51.9844C88.0072 52.6216 88.0558 53.0968 88.0018 53.8258C87.9964 53.9014 87.991 53.9824 87.9802 54.058C87.9586 54.2308 88.0234 53.8528 87.9694 54.1444C87.9424 54.2956 87.9154 54.4468 87.8776 54.5926C87.8398 54.7384 87.802 54.8842 87.7534 55.03C87.7264 55.1164 87.694 55.2028 87.667 55.2838C87.667 55.2838 87.559 55.543 87.6238 55.4026C87.505 55.6726 87.3646 55.9372 87.208 56.191C87.1216 56.326 87.0298 56.461 86.9326 56.5906C86.8354 56.7202 87.0622 56.4394 86.884 56.6554C86.8192 56.7364 86.749 56.812 86.6842 56.8876C86.2144 57.406 85.8904 57.6598 85.318 57.9892C84.7456 58.3186 84.1624 58.5238 83.4118 58.6318C83.455 58.6264 83.5576 58.621 83.374 58.6318C83.2498 58.6426 83.1256 58.6534 83.0014 58.6588C82.8016 58.6696 82.6018 58.6696 82.402 58.6588C81.9268 58.6318 81.4678 58.5292 81.0142 58.3834C80.5606 58.2376 80.0098 58.5454 79.918 59.0044C79.486 61.2292 78.7732 63.346 77.812 65.2738C77.3206 66.2512 76.7698 67.2016 76.1542 68.1088C75.5386 69.016 74.9716 69.7504 74.2048 70.6144C72.7253 72.2722 71.1323 73.6492 69.3449 74.8156C68.4269 75.415 67.4711 75.955 66.4829 76.4302C65.4947 76.9054 64.5983 77.2618 63.4859 77.6236C62.3735 77.9854 61.2935 78.2446 60.1703 78.4444C59.5493 78.5524 59.2091 78.601 58.6151 78.6604C58.0211 78.7198 57.4595 78.7576 56.8817 78.7792C54.4949 78.8602 52.3619 78.6388 50.0886 78.0718C47.8152 77.5048 46.0115 76.7704 44.0568 75.6688C42.0858 74.5564 40.482 73.3414 38.8836 71.7592C35.784 68.692 33.5592 64.858 32.4522 60.6298C32.3118 60.0844 32.1876 59.5336 32.0796 58.9774C31.9932 58.5238 31.4154 58.2106 30.9834 58.3564C30.1626 58.6318 29.3256 58.729 28.4616 58.6156C28.6074 58.6318 28.413 58.6048 28.3806 58.5994C28.305 58.5886 28.2294 58.5724 28.1538 58.5562C27.9756 58.5184 27.7974 58.4752 27.6246 58.4212C27.4788 58.378 27.3384 58.324 27.198 58.2754C26.9334 58.1782 27.3384 58.351 27.0792 58.2268C26.9712 58.1728 26.8632 58.1242 26.7606 58.0702C26.118 57.73 25.7616 57.4546 25.2702 56.92C25.0164 56.6446 24.9624 56.5744 24.7626 56.2612C24.6654 56.11 24.579 55.9588 24.4926 55.8022C24.4494 55.7212 24.4117 55.6456 24.3739 55.5646C24.3685 55.5484 24.2658 55.3162 24.3198 55.4512C24.1794 55.1164 24.0769 54.7654 24.0013 54.4144C23.9905 54.355 23.9742 54.2956 23.9634 54.2362C23.9634 54.2362 23.9202 53.9338 23.9418 54.1066C23.9148 53.8906 23.8987 53.6692 23.8987 53.4532C23.8879 52.7296 23.9634 52.2382 24.2226 51.5146C24.3738 51.0934 24.8112 50.3266 25.0974 49.9918C25.5726 49.4302 25.956 49.1062 26.5284 48.7714C26.7066 48.6634 26.8956 48.5716 27.0792 48.4852C27.333 48.361 26.928 48.5338 27.198 48.4366C27.2844 48.4042 27.3654 48.3718 27.4518 48.3448C27.6516 48.2746 27.8568 48.2206 28.062 48.172C28.1538 48.1504 28.2402 48.1342 28.332 48.118C28.3482 48.118 28.6128 48.0748 28.4616 48.0964C29.3958 47.9776 30.3786 48.0802 31.2426 48.4528C31.7664 48.6742 32.3766 48.5284 32.5494 47.9182C32.6196 47.6698 32.6952 47.4214 32.7762 47.173L31.68 47.794C35.6112 48.9388 39.7908 47.8102 43.533 46.5142C47.1672 45.256 50.6771 43.636 53.9819 41.6758C55.8233 40.585 57.6053 39.3862 59.3117 38.0902L58.2317 37.9498C60.6887 40.5256 63.4643 42.8044 66.4667 44.7214C67.9517 45.6718 69.4961 46.525 71.089 47.2864C72.8278 48.118 74.6369 48.9334 76.5754 49.1116C77.6662 49.2142 78.7948 49.063 79.8424 48.7444C80.3392 48.5932 80.809 48.3772 81.3112 48.2422C81.7756 48.1126 82.2292 48.0532 82.7098 48.0532C83.8546 48.0424 83.86 46.2604 82.7098 46.2712H82.699Z" fill="black"/>
<path d="M48.129 52.3299C49.0415 52.3299 49.7813 51.5901 49.7813 50.6775C49.7813 49.765 49.0415 49.0251 48.129 49.0251C47.2164 49.0251 46.4766 49.765 46.4766 50.6775C46.4766 51.5901 47.2164 52.3299 48.129 52.3299Z" fill="black"/>
<path d="M63.8399 52.3299C64.7525 52.3299 65.4923 51.5901 65.4923 50.6775C65.4923 49.765 64.7525 49.0251 63.8399 49.0251C62.9273 49.0251 62.1875 49.765 62.1875 50.6775C62.1875 51.5901 62.9273 52.3299 63.8399 52.3299Z" fill="black"/>
<path d="M54.8628 52.4435C55.0572 52.3571 54.6792 52.5137 54.8736 52.4435C54.9114 52.4273 54.9493 52.4165 54.9871 52.4003C55.0843 52.3625 55.1869 52.3301 55.2895 52.3031C55.4731 52.2491 55.6566 52.2113 55.8456 52.1843L55.608 52.2167C55.8942 52.1789 56.175 52.1789 56.4612 52.2167L56.2236 52.1843C56.4072 52.2113 56.58 52.2491 56.7582 52.3085C56.796 52.3193 56.8393 52.3355 56.8771 52.3517C57.0121 52.4003 56.8932 52.3463 56.8284 52.3301C56.9256 52.3517 57.0283 52.4219 57.1147 52.4705C57.525 52.6919 58.1029 52.5839 58.3351 52.1519C58.5673 51.7199 58.4538 51.1691 58.0164 50.9315C57.417 50.6075 56.7529 50.4077 56.0671 50.4077C55.3273 50.4077 54.6415 50.6237 53.9719 50.9153C53.7829 50.9963 53.6155 51.2555 53.5615 51.4499C53.5021 51.6605 53.529 51.9467 53.6532 52.1357C53.7774 52.3247 53.961 52.4921 54.1878 52.5461C54.4362 52.6001 54.6414 52.5569 54.8736 52.4543L54.8628 52.4435Z" fill="black"/>
<path d="M49.0809 55.581C53.3252 57.9624 58.6064 58.0272 62.9102 55.7592C63.3368 55.5378 63.4664 54.9438 63.2288 54.5388C62.975 54.1068 62.435 53.9934 62.0084 54.2202C58.2716 56.1858 53.6654 56.1102 49.9772 54.042C48.9782 53.4804 48.0765 55.0194 49.0754 55.581H49.0809Z" fill="black"/>
<path d="M39.4411 63.0166C42.3339 63.0166 44.6791 60.6715 44.6791 57.7786C44.6791 54.8858 42.3339 52.5406 39.4411 52.5406C36.5482 52.5406 34.2031 54.8858 34.2031 57.7786C34.2031 60.6715 36.5482 63.0166 39.4411 63.0166Z" fill="#FFB18F"/>
<path d="M72.5349 63.0166C75.4277 63.0166 77.7728 60.6715 77.7728 57.7786C77.7728 54.8858 75.4277 52.5406 72.5349 52.5406C69.642 52.5406 67.2969 54.8858 67.2969 57.7786C67.2969 60.6715 69.642 63.0166 72.5349 63.0166Z" fill="#FFB18F"/>
<path d="M92.225 72.738C92.225 70.5888 90.4862 68.85 88.337 68.85C86.9222 68.85 85.6856 69.6114 85.0052 70.74C84.5516 70.5564 84.0548 70.4484 83.5364 70.4484C81.3872 70.4484 79.6484 72.1872 79.6484 74.3364C79.6484 76.4856 81.3872 78.2244 83.5364 78.2244C83.8226 78.2244 84.1034 78.192 84.368 78.1326C84.827 79.7688 86.3282 80.9676 88.1102 80.9676C90.2594 80.9676 91.9982 79.2288 91.9982 77.0796C91.9982 76.3452 91.793 75.6594 91.4366 75.0762C91.928 74.4228 92.225 73.6128 92.225 72.7326V72.738ZM86.8898 76.4748C86.0042 76.4748 85.2914 75.7566 85.2914 74.8764C85.2914 73.9962 86.0096 73.278 86.8898 73.278C87.77 73.278 88.4882 73.9962 88.4882 74.8764C88.4882 75.7566 87.77 76.4748 86.8898 76.4748Z" fill="#F5C140"/>
</svg>
